<svg
   xmlns="http://www.w3.org/2000/svg"
   width="120"
   height="120"
   viewBox="0 0 120 120">
    <g fill="#eeeeee" transform="matrix(2.1489053,0,0,2.1489053,-67.635321,-72.430391)">
      <path
         style="fill:#eeeeee;fill-opacity:1;stroke-width:0.780914;stroke-miterlimit:4;stroke-dasharray:none"
         d="m 62.710938,36.173828 c -8.94855,0.04731 -16.79607,4.683549 -21.31836,11.660156 h 6.447266 c 3.701788,-4.000976 8.976773,-6.53495 14.863281,-6.576172 0.04752,-1.65e-4 0.09506,-1.65e-4 0.142578,0 6.015176,2.79e-4 11.405626,2.606515 15.144531,6.730469 l 3.332032,-3.917969 C 76.67232,39.207828 70.116688,36.174008 62.845703,36.173828 c -0.04492,-1.18e-4 -0.08984,-1.18e-4 -0.134765,0 z M 40.058594,50.152344 c -1.75114,3.44943 -2.744286,7.345721 -2.744141,11.474609 -9.5e-5,4.522679 1.188982,8.766443 3.263672,12.447266 h 6.119141 c -2.674927,-3.444134 -4.283205,-7.754403 -4.283204,-12.447266 -1.06e-4,-4.256268 1.315672,-8.205225 3.556641,-11.474609 z m 38.076172,24.955078 c -3.743313,4.216316 -9.19688,6.88839 -15.289063,6.888672 -5.827033,-2.7e-4 -11.07087,-2.44461 -14.792969,-6.345703 h -6.511718 c 4.569465,6.885006 12.40342,11.429467 21.304687,11.429687 7.351813,-1.81e-4 13.972335,-3.102965 18.630859,-8.060547 z" />
      <rect
         style="fill:#eeeeee;fill-opacity:1;stroke-width:0.873816"
         width="4.9235339"
         height="35.757389"
         x="65.20639"
         y="50.036316" />
      <path
         style="fill:#eeeeee;fill-opacity:1;stroke-width:0.530452"
         d="m 40.884765,50.175744 0.847657,-0.0039 0.847656,-0.0039 0.847656,-0.0039 0.847656,-0.0039 0.847657,-0.0039 0.847656,-0.0039 4.474609,5.068147 4.507813,5.105601 4.398437,-5.146999 4.365235,-5.111514 6.554687,-0.03155 -7.673828,8.982767 -7.673828,8.983098 -7.867188,-8.908189 -0.983398,-1.11377 -0.983399,-1.11377 -0.983398,-1.11377 -0.983399,-1.11377 -0.983398,-1.113771 -0.983398,-1.11377 -0.627442,-1.674555 m 0,0 -0.491699,-0.556885 m 0,0 -0.847656,0.0039 m 0,0 0.983398,1.11377"/>
    </g>
</svg>
